<svg width="58" height="52" viewBox="0 0 58 52" fill="none" xmlns="http://www.w3.org/2000/svg">
<path d="M56.4231 30.3437C52.0431 43.5737 37.6231 50.4637 25.2731 51.4237C22.9631 51.5837 21.0931 51.6537 19.3831 51.6537C12.0231 51.6537 6.57306 50.3537 2.24306 47.5637C0.343059 46.1037 -0.406941 44.4637 0.213059 43.1637C0.563059 42.4237 1.59306 41.3137 4.67306 42.0237C5.49306 42.1937 6.34306 42.4337 7.16306 42.6537L7.57306 42.7737C8.33306 42.9937 9.09306 43.2037 9.85306 43.3737C23.4131 46.7437 45.3331 42.9637 49.5031 27.3237C50.6231 21.3637 48.7431 15.1937 44.5731 11.2637C40.7931 7.70372 35.8031 6.47372 30.5131 7.79372C26.4331 8.91372 23.2131 12.4737 22.5031 16.6237C22.0231 18.7337 22.6631 20.9837 24.1331 22.3837C25.4031 23.5837 27.0331 23.9837 28.7431 23.4937L28.9431 23.4637C29.4231 23.4137 30.4131 22.8437 31.2831 22.3437L31.4031 22.2737C33.3331 21.1437 35.3431 19.9737 36.9731 20.7837C37.5731 21.0837 38.3231 21.7737 38.5131 23.3737L38.5331 23.4637V23.5737C38.2931 25.8637 37.0431 27.8237 34.8931 29.2937C32.0031 31.2837 27.7831 32.0637 24.6331 31.1937C18.8831 29.7437 15.2831 25.6937 14.7631 20.1037C14.0931 12.8937 18.5631 5.14372 25.1631 2.07372L25.3431 1.98372C33.3431 -1.86628 43.9731 0.0237198 50.6231 6.47372C56.5631 12.6237 58.8931 22.2137 56.4231 30.3437Z" fill="#2BB39B"/>
</svg>
